<mxfile host="app.diagrams.net" modified="2024-06-15T11:24:53.380Z" agent="Mozilla/5.0 (Macintosh; Intel Mac OS X 10_15_7) AppleWebKit/537.36 (KHTML, like Gecko) Chrome/125.0.0.0 Safari/537.36" etag="_fp07CTYH5iBCdFFoGEd" version="24.3.1" type="device">
  <diagram name="Page-1" id="wFxmIXULcYQQzQfxHxdS">
    <mxGraphModel dx="977" dy="578" grid="1" gridSize="10" guides="1" tooltips="1" connect="1" arrows="1" fold="1" page="1" pageScale="1" pageWidth="827" pageHeight="1169" math="0" shadow="0">
      <root>
        <mxCell id="0" />
        <mxCell id="1" parent="0" />
        <mxCell id="U87Oly4W8GxgtwuZ707L-12" style="edgeStyle=orthogonalEdgeStyle;rounded=0;orthogonalLoop=1;jettySize=auto;html=1;exitX=0.75;exitY=1;exitDx=0;exitDy=0;entryX=0.5;entryY=0;entryDx=0;entryDy=0;" edge="1" parent="1" source="U87Oly4W8GxgtwuZ707L-1" target="U87Oly4W8GxgtwuZ707L-3">
          <mxGeometry relative="1" as="geometry" />
        </mxCell>
        <mxCell id="U87Oly4W8GxgtwuZ707L-13" style="edgeStyle=orthogonalEdgeStyle;rounded=0;orthogonalLoop=1;jettySize=auto;html=1;exitX=0.25;exitY=1;exitDx=0;exitDy=0;entryX=0.5;entryY=0;entryDx=0;entryDy=0;" edge="1" parent="1" source="U87Oly4W8GxgtwuZ707L-1" target="U87Oly4W8GxgtwuZ707L-2">
          <mxGeometry relative="1" as="geometry" />
        </mxCell>
        <mxCell id="U87Oly4W8GxgtwuZ707L-1" value="Homepage" style="rounded=0;whiteSpace=wrap;html=1;" vertex="1" parent="1">
          <mxGeometry x="340" y="70" width="120" height="60" as="geometry" />
        </mxCell>
        <mxCell id="U87Oly4W8GxgtwuZ707L-2" value="Top Bar (with search)" style="rounded=1;whiteSpace=wrap;html=1;" vertex="1" parent="1">
          <mxGeometry x="240" y="190" width="120" height="60" as="geometry" />
        </mxCell>
        <mxCell id="U87Oly4W8GxgtwuZ707L-5" value="" style="edgeStyle=orthogonalEdgeStyle;rounded=0;orthogonalLoop=1;jettySize=auto;html=1;startArrow=classic;startFill=1;" edge="1" parent="1" source="U87Oly4W8GxgtwuZ707L-3" target="U87Oly4W8GxgtwuZ707L-4">
          <mxGeometry relative="1" as="geometry" />
        </mxCell>
        <mxCell id="U87Oly4W8GxgtwuZ707L-6" style="edgeStyle=orthogonalEdgeStyle;rounded=0;orthogonalLoop=1;jettySize=auto;html=1;exitX=0.25;exitY=1;exitDx=0;exitDy=0;" edge="1" parent="1" source="U87Oly4W8GxgtwuZ707L-3" target="U87Oly4W8GxgtwuZ707L-7">
          <mxGeometry relative="1" as="geometry">
            <mxPoint x="320" y="310" as="targetPoint" />
          </mxGeometry>
        </mxCell>
        <mxCell id="U87Oly4W8GxgtwuZ707L-10" style="edgeStyle=orthogonalEdgeStyle;rounded=0;orthogonalLoop=1;jettySize=auto;html=1;exitX=0.5;exitY=1;exitDx=0;exitDy=0;entryX=0.5;entryY=0;entryDx=0;entryDy=0;" edge="1" parent="1" source="U87Oly4W8GxgtwuZ707L-3" target="U87Oly4W8GxgtwuZ707L-8">
          <mxGeometry relative="1" as="geometry" />
        </mxCell>
        <mxCell id="U87Oly4W8GxgtwuZ707L-11" style="edgeStyle=orthogonalEdgeStyle;rounded=0;orthogonalLoop=1;jettySize=auto;html=1;exitX=0.75;exitY=1;exitDx=0;exitDy=0;entryX=0.5;entryY=0;entryDx=0;entryDy=0;" edge="1" parent="1" source="U87Oly4W8GxgtwuZ707L-3" target="U87Oly4W8GxgtwuZ707L-9">
          <mxGeometry relative="1" as="geometry" />
        </mxCell>
        <mxCell id="U87Oly4W8GxgtwuZ707L-3" value="Homepage context" style="rounded=1;whiteSpace=wrap;html=1;" vertex="1" parent="1">
          <mxGeometry x="430" y="190" width="120" height="60" as="geometry" />
        </mxCell>
        <mxCell id="U87Oly4W8GxgtwuZ707L-4" value="Fetches posts" style="rhombus;whiteSpace=wrap;html=1;rounded=1;" vertex="1" parent="1">
          <mxGeometry x="630" y="180" width="90" height="80" as="geometry" />
        </mxCell>
        <mxCell id="U87Oly4W8GxgtwuZ707L-7" value="Create post textbox" style="rounded=0;whiteSpace=wrap;html=1;" vertex="1" parent="1">
          <mxGeometry x="260" y="290" width="120" height="60" as="geometry" />
        </mxCell>
        <mxCell id="U87Oly4W8GxgtwuZ707L-15" value="" style="edgeStyle=orthogonalEdgeStyle;rounded=0;orthogonalLoop=1;jettySize=auto;html=1;" edge="1" parent="1" source="U87Oly4W8GxgtwuZ707L-8" target="U87Oly4W8GxgtwuZ707L-14">
          <mxGeometry relative="1" as="geometry" />
        </mxCell>
        <mxCell id="U87Oly4W8GxgtwuZ707L-8" value="Lists Posts" style="rounded=0;whiteSpace=wrap;html=1;" vertex="1" parent="1">
          <mxGeometry x="430" y="290" width="120" height="60" as="geometry" />
        </mxCell>
        <mxCell id="U87Oly4W8GxgtwuZ707L-9" value="Pagination" style="rounded=0;whiteSpace=wrap;html=1;" vertex="1" parent="1">
          <mxGeometry x="620" y="290" width="120" height="60" as="geometry" />
        </mxCell>
        <mxCell id="U87Oly4W8GxgtwuZ707L-14" value="Post Cards" style="whiteSpace=wrap;html=1;rounded=0;" vertex="1" parent="1">
          <mxGeometry x="430" y="380" width="120" height="60" as="geometry" />
        </mxCell>
        <mxCell id="U87Oly4W8GxgtwuZ707L-23" style="edgeStyle=orthogonalEdgeStyle;rounded=0;orthogonalLoop=1;jettySize=auto;html=1;exitX=0.25;exitY=1;exitDx=0;exitDy=0;entryX=0.5;entryY=0;entryDx=0;entryDy=0;" edge="1" parent="1" source="U87Oly4W8GxgtwuZ707L-16" target="U87Oly4W8GxgtwuZ707L-20">
          <mxGeometry relative="1" as="geometry" />
        </mxCell>
        <mxCell id="U87Oly4W8GxgtwuZ707L-24" style="edgeStyle=orthogonalEdgeStyle;rounded=0;orthogonalLoop=1;jettySize=auto;html=1;exitX=0.5;exitY=1;exitDx=0;exitDy=0;entryX=0.5;entryY=0;entryDx=0;entryDy=0;" edge="1" parent="1" source="U87Oly4W8GxgtwuZ707L-16" target="U87Oly4W8GxgtwuZ707L-18">
          <mxGeometry relative="1" as="geometry" />
        </mxCell>
        <mxCell id="U87Oly4W8GxgtwuZ707L-25" style="edgeStyle=orthogonalEdgeStyle;rounded=0;orthogonalLoop=1;jettySize=auto;html=1;exitX=0.75;exitY=1;exitDx=0;exitDy=0;entryX=0.5;entryY=0;entryDx=0;entryDy=0;" edge="1" parent="1" source="U87Oly4W8GxgtwuZ707L-16" target="U87Oly4W8GxgtwuZ707L-22">
          <mxGeometry relative="1" as="geometry" />
        </mxCell>
        <mxCell id="U87Oly4W8GxgtwuZ707L-34" style="edgeStyle=orthogonalEdgeStyle;rounded=0;orthogonalLoop=1;jettySize=auto;html=1;exitX=0;exitY=0.25;exitDx=0;exitDy=0;entryX=1;entryY=1;entryDx=0;entryDy=0;startArrow=classic;startFill=1;" edge="1" parent="1" source="U87Oly4W8GxgtwuZ707L-16" target="U87Oly4W8GxgtwuZ707L-33">
          <mxGeometry relative="1" as="geometry" />
        </mxCell>
        <mxCell id="U87Oly4W8GxgtwuZ707L-35" style="edgeStyle=orthogonalEdgeStyle;rounded=0;orthogonalLoop=1;jettySize=auto;html=1;exitX=0;exitY=0.5;exitDx=0;exitDy=0;entryX=1;entryY=0.5;entryDx=0;entryDy=0;startArrow=classic;startFill=1;" edge="1" parent="1" source="U87Oly4W8GxgtwuZ707L-16" target="U87Oly4W8GxgtwuZ707L-32">
          <mxGeometry relative="1" as="geometry" />
        </mxCell>
        <mxCell id="U87Oly4W8GxgtwuZ707L-16" value="Account Page" style="rounded=0;whiteSpace=wrap;html=1;" vertex="1" parent="1">
          <mxGeometry x="160" y="430" width="120" height="60" as="geometry" />
        </mxCell>
        <mxCell id="U87Oly4W8GxgtwuZ707L-18" value="User Header" style="rounded=1;whiteSpace=wrap;html=1;" vertex="1" parent="1">
          <mxGeometry x="160" y="529" width="120" height="60" as="geometry" />
        </mxCell>
        <mxCell id="U87Oly4W8GxgtwuZ707L-20" value="Top Bar (no search)" style="rounded=1;whiteSpace=wrap;html=1;" vertex="1" parent="1">
          <mxGeometry x="10" y="529" width="120" height="60" as="geometry" />
        </mxCell>
        <mxCell id="U87Oly4W8GxgtwuZ707L-27" style="edgeStyle=orthogonalEdgeStyle;rounded=0;orthogonalLoop=1;jettySize=auto;html=1;exitX=0.5;exitY=1;exitDx=0;exitDy=0;entryX=0.5;entryY=0;entryDx=0;entryDy=0;" edge="1" parent="1" source="U87Oly4W8GxgtwuZ707L-22" target="U87Oly4W8GxgtwuZ707L-26">
          <mxGeometry relative="1" as="geometry" />
        </mxCell>
        <mxCell id="U87Oly4W8GxgtwuZ707L-22" value="Lists Posts" style="rounded=1;whiteSpace=wrap;html=1;" vertex="1" parent="1">
          <mxGeometry x="320" y="529" width="120" height="60" as="geometry" />
        </mxCell>
        <mxCell id="U87Oly4W8GxgtwuZ707L-26" value="Post Cards" style="whiteSpace=wrap;html=1;rounded=0;" vertex="1" parent="1">
          <mxGeometry x="320" y="640" width="120" height="60" as="geometry" />
        </mxCell>
        <mxCell id="U87Oly4W8GxgtwuZ707L-40" style="edgeStyle=orthogonalEdgeStyle;rounded=0;orthogonalLoop=1;jettySize=auto;html=1;exitX=0.25;exitY=1;exitDx=0;exitDy=0;entryX=0.5;entryY=0;entryDx=0;entryDy=0;" edge="1" parent="1" source="U87Oly4W8GxgtwuZ707L-28" target="U87Oly4W8GxgtwuZ707L-36">
          <mxGeometry relative="1" as="geometry" />
        </mxCell>
        <mxCell id="U87Oly4W8GxgtwuZ707L-41" style="edgeStyle=orthogonalEdgeStyle;rounded=0;orthogonalLoop=1;jettySize=auto;html=1;exitX=0.75;exitY=1;exitDx=0;exitDy=0;entryX=0.5;entryY=0;entryDx=0;entryDy=0;" edge="1" parent="1" source="U87Oly4W8GxgtwuZ707L-28" target="U87Oly4W8GxgtwuZ707L-37">
          <mxGeometry relative="1" as="geometry" />
        </mxCell>
        <mxCell id="U87Oly4W8GxgtwuZ707L-45" style="edgeStyle=orthogonalEdgeStyle;rounded=0;orthogonalLoop=1;jettySize=auto;html=1;exitX=1;exitY=0.5;exitDx=0;exitDy=0;entryX=0;entryY=0.5;entryDx=0;entryDy=0;startArrow=classic;startFill=1;" edge="1" parent="1" source="U87Oly4W8GxgtwuZ707L-28" target="U87Oly4W8GxgtwuZ707L-44">
          <mxGeometry relative="1" as="geometry" />
        </mxCell>
        <mxCell id="U87Oly4W8GxgtwuZ707L-28" value="Full Page Post" style="rounded=0;whiteSpace=wrap;html=1;" vertex="1" parent="1">
          <mxGeometry x="570" y="430" width="120" height="60" as="geometry" />
        </mxCell>
        <mxCell id="U87Oly4W8GxgtwuZ707L-32" value="Fetches user&#39;s posts" style="rhombus;whiteSpace=wrap;html=1;rounded=1;" vertex="1" parent="1">
          <mxGeometry x="25" y="420" width="90" height="80" as="geometry" />
        </mxCell>
        <mxCell id="U87Oly4W8GxgtwuZ707L-33" value="Fetches user&#39;s data" style="rhombus;whiteSpace=wrap;html=1;rounded=1;" vertex="1" parent="1">
          <mxGeometry x="60" y="330" width="90" height="80" as="geometry" />
        </mxCell>
        <mxCell id="U87Oly4W8GxgtwuZ707L-36" value="Top Bar (no search)" style="rounded=1;whiteSpace=wrap;html=1;" vertex="1" parent="1">
          <mxGeometry x="500" y="530" width="120" height="60" as="geometry" />
        </mxCell>
        <mxCell id="U87Oly4W8GxgtwuZ707L-42" style="edgeStyle=orthogonalEdgeStyle;rounded=0;orthogonalLoop=1;jettySize=auto;html=1;exitX=0.25;exitY=1;exitDx=0;exitDy=0;entryX=0.5;entryY=0;entryDx=0;entryDy=0;" edge="1" parent="1" source="U87Oly4W8GxgtwuZ707L-37" target="U87Oly4W8GxgtwuZ707L-39">
          <mxGeometry relative="1" as="geometry" />
        </mxCell>
        <mxCell id="U87Oly4W8GxgtwuZ707L-43" style="edgeStyle=orthogonalEdgeStyle;rounded=0;orthogonalLoop=1;jettySize=auto;html=1;exitX=0.75;exitY=1;exitDx=0;exitDy=0;entryX=0.5;entryY=0;entryDx=0;entryDy=0;" edge="1" parent="1" source="U87Oly4W8GxgtwuZ707L-37" target="U87Oly4W8GxgtwuZ707L-38">
          <mxGeometry relative="1" as="geometry" />
        </mxCell>
        <mxCell id="U87Oly4W8GxgtwuZ707L-37" value="Full Post" style="rounded=1;whiteSpace=wrap;html=1;" vertex="1" parent="1">
          <mxGeometry x="630" y="530" width="120" height="60" as="geometry" />
        </mxCell>
        <mxCell id="U87Oly4W8GxgtwuZ707L-38" value="Comments" style="rounded=0;whiteSpace=wrap;html=1;" vertex="1" parent="1">
          <mxGeometry x="700" y="620" width="120" height="60" as="geometry" />
        </mxCell>
        <mxCell id="U87Oly4W8GxgtwuZ707L-39" value="Comments Form" style="rounded=0;whiteSpace=wrap;html=1;" vertex="1" parent="1">
          <mxGeometry x="560" y="620" width="120" height="60" as="geometry" />
        </mxCell>
        <mxCell id="U87Oly4W8GxgtwuZ707L-44" value="Fetches post" style="rhombus;whiteSpace=wrap;html=1;rounded=1;" vertex="1" parent="1">
          <mxGeometry x="737" y="420" width="90" height="80" as="geometry" />
        </mxCell>
      </root>
    </mxGraphModel>
  </diagram>
</mxfile>
